# xmcd
#
# Track frame offsets:
#	150
#	21623
#	42350
#	67178
#	89225
#	112133
#	131087
#	151644
#	175018
#	193481
#	210957
#	230495
#	251578
#
# Disc length: 3672 seconds
#
# Revision: 1
# Processed by: cddbd v1.5.2PL0 Copyright (c) Steve Scherf et al.
# Submitted via: EasyCDDAExtractor 10.5.1.1
#
DISCID=c20e560d
DTITLE=黑鸭子合唱团 - 人生与钢琴
DYEAR=1900
DGENRE=
TTITLE0=黑鸭子合唱团 - 约定
TTITLE1=黑鸭子合唱团 - 我是不是你最疼爱的人
TTITLE2=黑鸭子合唱团 - 发如雪
TTITLE3=黑鸭子合唱团 - 一生爱你千百回
TTITLE4=黑鸭子合唱团 - 不是我不小心
TTITLE5=黑鸭子合唱团 - 冻结
TTITLE6=黑鸭子合唱团 - 一万个理由
TTITLE7=黑鸭子合唱团 - 不要再来伤害我
TTITLE8=黑鸭子合唱团 - 美丽心情
TTITLE9=黑鸭子合唱团 - 千纸鹤
TTITLE10=黑鸭子合唱团 - 天边
TTITLE11=黑鸭子合唱团 - 追梦人
TTITLE12=黑鸭子合唱团 - 曾经最美
EXTD=
EXTT0=
EXTT1=
EXTT2=
EXTT3=
EXTT4=
EXTT5=
EXTT6=
EXTT7=
EXTT8=
EXTT9=
EXTT10=
EXTT11=
EXTT12=
PLAYORDER=
